{"title":"0.1.0.2008.DVDRiP.XviD-DvF","uid":7103028,"size":736272114,"categoryP":"video","categoryS":"movies","magnet":"?xt=urn:btih:53d549bfe4dfba7d713208b4a518b5aa330b2a96&amp;dn=0.1.0.2008.DVDRiP.XviD-DvF&amp;tr=udp%3A%2F%2Ftracker.openbittorrent.com%3A80&amp;tr=udp%3A%2F%2Fopen.demonii.com%3A1337&amp;tr=udp%3A%2F%2Ftracker.coppersurfer.tk%3A6969&amp;tr=udp%3A%2F%2Fexodus.desync.com%3A6969","seeders":0,"leechers":1,"uploader":null,"files":9,"time":1331759942,"description":" General\n Complete name                    : /010-x-df.avi\n Format                           : AVI\n Format/Info                      : Audio Video Interleave\n File size                        : 697 MiB\n Duration                         : 1h 22mn\n Overall bit rate                 : 1 183 Kbps\n Writing application              : VirtualDubMod 1.5.10.3 | www.virtualdub-fr.org || (build 2550/release)\n Writing library                  : VirtualDubMod build 2550/release\n\n Video\n ID                               : 0\n Format                           : MPEG-4 Visual\n Format profile                   : Advanced Simple@L5\n Format settings, BVOP            : Yes\n Format settings, QPel            : No\n Format settings, GMC             : No warppoints\n Format settings, Matrix          : Default (H.263)\n Codec ID                         : XVID\n Codec ID/Hint                    : XviD\n Duration                         : 1h 22mn\n Bit rate                         : 1 029 Kbps\n Width                            : 640 pixels\n Height                           : 272 pixels\n Display aspect ratio             : 2.35:1\n Frame rate                       : 25.000 fps\n Resolution                       : 8 bits\n Colorimetry                      : 4:2:0\n Scan type                        : Progressive\n Bits/(Pixel*Frame)               : 0.236\n Stream size                      : 606 MiB (87%)\n Writing library                  : XviD 1.1.2 (UTC 2006-11-01)\n\n Audio\n ID                               : 1\n Format                           : MPEG Audio\n Format version                   : Version 1\n Format profile                   : Layer 3\n Format_Settings_Mode             : Joint stereo\n Format_Settings_ModeExtension    : MS Stereo\n Codec ID                         : 55\n Codec ID/Hint                    : MP3\n Duration                         : 1h 22mn\n Bit rate mode                    : Variable\n Bit rate                         : 141 Kbps\n Nominal bit rate                 : 140 Kbps\n Channel(s)                       : 2 channels\n Sampling rate                    : 48.0 KHz\n Stream size                      : 83.2 MiB (12%)\n Alignment                        : Aligned on interleaves\n Interleave, duration             : 24 ms (0.60 video frame)\n Interleave, preload duration     : 291 ms\n Writing library                  : LAME3.90.\n Encoding settings                : -m j -V 4 -q 2 -lowpass 17.6 --abr 140","torrent":{"xt":"urn:btih:53d549bfe4dfba7d713208b4a518b5aa330b2a96","amp;dn":"0.1.0.2008.DVDRiP.XviD-DvF","amp;tr":["udp%3A%2F%2Ftracker.openbittorrent.com%3A80","udp%3A%2F%2Fopen.demonii.com%3A1337","udp%3A%2F%2Ftracker.coppersurfer.tk%3A6969","udp%3A%2F%2Fexodus.desync.com%3A6969"],"infoHash":"53d549bfe4dfba7d713208b4a518b5aa330b2a96","infoHashBuffer":{"type":"Buffer","data":[83,213,73,191,228,223,186,125,113,50,8,180,165,24,181,170,51,11,42,150]},"announce":[],"urlList":[]}}